<svg width="230" height="230" viewBox="0 0 230 230" fill="none" xmlns="http://www.w3.org/2000/svg">
<path d="M230 115C230 51.635 178.365 0 115 0C51.635 0 0 51.635 0 115C0 148.35 14.375 178.365 37.145 199.41C37.145 199.525 37.145 199.525 37.03 199.64C38.18 200.79 39.56 201.71 40.71 202.745C41.4 203.32 41.975 203.895 42.665 204.355C44.735 206.08 47.035 207.69 49.22 209.3C50.025 209.875 50.715 210.335 51.52 210.91C53.705 212.405 56.005 213.785 58.42 215.05C59.225 215.51 60.145 216.085 60.95 216.545C63.25 217.81 65.665 218.96 68.195 219.995C69.115 220.455 70.035 220.915 70.955 221.26C73.485 222.295 76.015 223.215 78.545 224.02C79.465 224.365 80.385 224.71 81.305 224.94C84.065 225.745 86.825 226.435 89.585 227.125C90.39 227.355 91.195 227.585 92.115 227.7C95.335 228.39 98.555 228.85 101.89 229.195C102.35 229.195 102.81 229.31 103.27 229.425C107.18 229.77 111.09 230 115 230C118.91 230 122.82 229.77 126.615 229.425C127.075 229.425 127.535 229.31 127.995 229.195C131.33 228.85 134.55 228.39 137.77 227.7C138.575 227.585 139.38 227.24 140.3 227.125C143.06 226.435 145.935 225.86 148.58 224.94C149.5 224.595 150.42 224.25 151.34 224.02C153.87 223.1 156.515 222.295 158.93 221.26C159.85 220.915 160.77 220.455 161.69 219.995C164.105 218.96 166.52 217.81 168.935 216.545C169.855 216.085 170.66 215.51 171.465 215.05C173.765 213.67 176.065 212.405 178.365 210.91C179.17 210.45 179.86 209.875 180.665 209.3C182.965 207.69 185.15 206.08 187.22 204.355C187.91 203.78 188.485 203.205 189.175 202.745C190.44 201.71 191.705 200.675 192.855 199.64C192.855 199.525 192.855 199.525 192.74 199.41C215.625 178.365 230 148.35 230 115ZM171.81 172.155C140.645 151.225 89.585 151.225 58.19 172.155C53.13 175.49 48.99 179.4 45.54 183.655C28.06 165.945 17.25 141.68 17.25 115C17.25 61.065 61.065 17.25 115 17.25C168.935 17.25 212.75 61.065 212.75 115C212.75 141.68 201.94 165.945 184.46 183.655C181.125 179.4 176.87 175.49 171.81 172.155Z" fill="#292D32"/>
<path d="M115 56.6914C91.195 56.6914 71.875 76.0114 71.875 99.8165C71.875 123.162 90.16 142.137 114.425 142.827H115.46H116.265H116.495C139.725 142.022 158.01 123.162 158.125 99.8165C158.125 76.0114 138.805 56.6914 115 56.6914Z" fill="#292D32"/>
</svg>
